<?xml version="1.0" encoding="utf-8"?>
<!-- Generator: Adobe Illustrator 26.3.1, SVG Export Plug-In . SVG Version: 6.00 Build 0)  -->
<svg version="1.1" id="Layer_1" xmlns="http://www.w3.org/2000/svg" xmlns:xlink="http://www.w3.org/1999/xlink" x="0px" y="0px"
	 viewBox="0 0 67 67" style="enable-background:new 0 0 67 67;" xml:space="preserve">
<style type="text/css">
	.st0{filter:url(#Adobe_OpacityMaskFilter);}
	.st1{fill-rule:evenodd;clip-rule:evenodd;fill:#FFFFFF;}
	.st2{mask:url(#mask-2_00000129899415779903996300000003910626225664029857_);fill:#569CD6;}
	.st3{filter:url(#Adobe_OpacityMaskFilter_00000016058822811688735850000005671166545838572472_);}
	.st4{mask:url(#mask-4_00000116216807249815784240000016178128325094071194_);fill:#F1F1F1;}
	.st5{filter:url(#Adobe_OpacityMaskFilter_00000016066797100264577110000014422849012562658466_);}
	
		.st6{mask:url(#mask-6_00000012432205612124813610000003379641723618490002_);fill:url(#Path_00000064356420872092660800000016621918490774491040_);}
	.st7{filter:url(#Adobe_OpacityMaskFilter_00000153703515193298620940000007018277943707353733_);}
	.st8{mask:url(#mask-9_00000016796492086533764300000014161067171254581431_);}
	.st9{fill:#9CDCFE;}
	.st10{filter:url(#Adobe_OpacityMaskFilter_00000088819822065534920350000009950475135079858582_);}
	.st11{mask:url(#mask-11_00000048496851016629353690000002951280697795228339_);fill:#FFFFFF;fill-opacity:0.2;}
	.st12{filter:url(#Adobe_OpacityMaskFilter_00000020374522587228510180000005510931101016973979_);}
	.st13{mask:url(#mask-13_00000129923014256045255210000017187055169857514119_);fill:#263238;fill-opacity:0.2;}
	.st14{filter:url(#Adobe_OpacityMaskFilter_00000020368348852418130140000008290354596541798812_);}
	.st15{mask:url(#mask-15_00000132048852997703320670000010134624619567815081_);fill:#263238;fill-opacity:0.1;}
	.st16{fill:url(#Path_00000127763822529584619750000015879913053435967627_);}
</style>
<g id="Page-1">
	<g id="Consumer-Apps-Sheets-Large-VD-R8-" transform="translate(-451.000000, -451.000000)">
		<g id="Hero" transform="translate(0.000000, 63.000000)">
			<g id="Personal" transform="translate(277.000000, 299.000000)">
				<g id="Sheets-icon" transform="translate(174.833333, 89.958333)">
					<g id="Group_00000170988192827977454780000012927149294035021727_">
						<g id="Clipped">
							<g id="SVGID_1_">
							</g>
							<defs>
								<filter id="Adobe_OpacityMaskFilter" filterUnits="userSpaceOnUse" x="9" y="0" width="47.3" height="65.1">
									<feColorMatrix  type="matrix" values="1 0 0 0 0  0 1 0 0 0  0 0 1 0 0  0 0 0 1 0"/>
								</filter>
							</defs>
							
								<mask maskUnits="userSpaceOnUse" x="9" y="0" width="47.3" height="65.1" id="mask-2_00000129899415779903996300000003910626225664029857_">
								<g class="st0">
									<path id="path-1_00000061439745938811126920000002932771542833889190_" class="st1" d="M38.6,0H13.4C11,0,9,2,9,4.4v56.2
										c0,2.4,2,4.4,4.4,4.4h38.5c2.4,0,4.4-2,4.4-4.4V17.8L38.6,0z"/>
								</g>
							</mask>
							<path id="Path" class="st2" d="M38.6,0H13.4C11,0,9,2,9,4.4v56.2c0,2.4,2,4.4,4.4,4.4h38.5c2.4,0,4.4-2,4.4-4.4V17.8L46,10.4
								L38.6,0z"/>
						</g>
						<g id="Clipped_00000153706755307254346180000011705853615758736042_">
							<g id="SVGID_00000106849605834062559980000017966905463574128793_">
							</g>
							<defs>
								
									<filter id="Adobe_OpacityMaskFilter_00000092436810116845658770000017249279349574926000_" filterUnits="userSpaceOnUse" x="20.8" y="31.8" width="23.7" height="21.4">
									<feColorMatrix  type="matrix" values="1 0 0 0 0  0 1 0 0 0  0 0 1 0 0  0 0 0 1 0"/>
								</filter>
							</defs>
							
								<mask maskUnits="userSpaceOnUse" x="20.8" y="31.8" width="23.7" height="21.4" id="mask-4_00000116216807249815784240000016178128325094071194_">
								<g style="filter:url(#Adobe_OpacityMaskFilter_00000092436810116845658770000017249279349574926000_);">
									<path id="path-3_00000176028009135277596320000005429101579760842155_" class="st1" d="M38.6,0H13.4C11,0,9,2,9,4.4v56.2
										c0,2.4,2,4.4,4.4,4.4h38.5c2.4,0,4.4-2,4.4-4.4V17.8L38.6,0z"/>
								</g>
							</mask>
							<path id="Shape" class="st4" d="M20.8,31.8v21.4h23.7V31.8H20.8z M31.2,50.3h-7.4v-3.7h7.4V50.3z M31.2,44.4h-7.4v-3.7h7.4
								V44.4z M31.2,38.5h-7.4v-3.7h7.4V38.5z M41.5,50.3h-7.4v-3.7h7.4V50.3z M41.5,44.4h-7.4v-3.7h7.4V44.4z M41.5,38.5h-7.4v-3.7
								h7.4V38.5z"/>
						</g>
						<g id="Clipped_00000181765777289011426750000018091326225327689115_">
							<g id="SVGID_00000168801339217285392630000000218106961417483427_">
							</g>
							<defs>
								
									<filter id="Adobe_OpacityMaskFilter_00000034056651299729931230000017081183559406208955_" filterUnits="userSpaceOnUse" x="39.9" y="16.5" width="16.5" height="16.4">
									<feColorMatrix  type="matrix" values="1 0 0 0 0  0 1 0 0 0  0 0 1 0 0  0 0 0 1 0"/>
								</filter>
							</defs>
							
								<mask maskUnits="userSpaceOnUse" x="39.9" y="16.5" width="16.5" height="16.4" id="mask-6_00000012432205612124813610000003379641723618490002_">
								<g style="filter:url(#Adobe_OpacityMaskFilter_00000034056651299729931230000017081183559406208955_);">
									<path id="path-5_00000106112386417507985630000005216331648430047402_" class="st1" d="M38.6,0H13.4C11,0,9,2,9,4.4v56.2
										c0,2.4,2,4.4,4.4,4.4h38.5c2.4,0,4.4-2,4.4-4.4V17.8L38.6,0z"/>
								</g>
							</mask>
							
								<linearGradient id="Path_00000102521562166621673660000012487500455405964709_" gradientUnits="userSpaceOnUse" x1="-869.5015" y1="542.1928" x2="-869.5015" y2="541.2785" gradientTransform="matrix(16.452 0 0 -16.4483 14353.1709 8936.0312)">
								<stop  offset="0" style="stop-color:#263238;stop-opacity:0.2"/>
								<stop  offset="1" style="stop-color:#263238;stop-opacity:2.000000e-02"/>
							</linearGradient>
							
								<polygon id="Path_00000065045499485378386770000012501257663548132255_" style="mask:url(#mask-6_00000012432205612124813610000003379641723618490002_);fill:url(#Path_00000102521562166621673660000012487500455405964709_);" points="
								39.9,16.5 56.3,32.9 56.3,17.8 							"/>
						</g>
						<g id="Clipped_00000029736436038491247280000008038759691103228343_">
							<g id="SVGID_00000011716865686045836510000004723400750966651067_">
							</g>
							<defs>
								
									<filter id="Adobe_OpacityMaskFilter_00000064327779795529446940000007628371404613187483_" filterUnits="userSpaceOnUse" x="38.6" y="0" width="17.8" height="17.8">
									<feColorMatrix  type="matrix" values="1 0 0 0 0  0 1 0 0 0  0 0 1 0 0  0 0 0 1 0"/>
								</filter>
							</defs>
							
								<mask maskUnits="userSpaceOnUse" x="38.6" y="0" width="17.8" height="17.8" id="mask-9_00000016796492086533764300000014161067171254581431_">
								<g style="filter:url(#Adobe_OpacityMaskFilter_00000064327779795529446940000007628371404613187483_);">
									<path id="path-8_00000084517911185875463820000002708021782613669033_" class="st1" d="M38.6,0H13.4C11,0,9,2,9,4.4v56.2
										c0,2.4,2,4.4,4.4,4.4h38.5c2.4,0,4.4-2,4.4-4.4V17.8L38.6,0z"/>
								</g>
							</mask>
							<g id="Group" class="st8">
								<g transform="translate(26.625000, -2.958333)">
									<path id="Path_00000098205528388751549610000006630988636772498363_" class="st9" d="M12,3v13.3c0,2.5,2,4.4,4.4,4.4h13.3
										L12,3z"/>
								</g>
							</g>
						</g>
						<g id="Clipped_00000141420973501157235670000005493530776611010470_">
							<g id="SVGID_00000105421212444329374790000017086274164279709864_">
							</g>
							<defs>
								
									<filter id="Adobe_OpacityMaskFilter_00000142860998687879878450000008653248276173040313_" filterUnits="userSpaceOnUse" x="9" y="0" width="29.6" height="4.8">
									<feColorMatrix  type="matrix" values="1 0 0 0 0  0 1 0 0 0  0 0 1 0 0  0 0 0 1 0"/>
								</filter>
							</defs>
							
								<mask maskUnits="userSpaceOnUse" x="9" y="0" width="29.6" height="4.8" id="mask-11_00000048496851016629353690000002951280697795228339_">
								<g style="filter:url(#Adobe_OpacityMaskFilter_00000142860998687879878450000008653248276173040313_);">
									<path id="path-10_00000048469079965612543770000015295016046728063113_" class="st1" d="M38.6,0H13.4C11,0,9,2,9,4.4v56.2
										c0,2.4,2,4.4,4.4,4.4h38.5c2.4,0,4.4-2,4.4-4.4V17.8L38.6,0z"/>
								</g>
							</mask>
							<path id="Path_00000007402260135641188070000007213237374348112036_" class="st11" d="M13.4,0C11,0,9,2,9,4.4v0.4
								c0-2.4,2-4.4,4.4-4.4h25.1V0H13.4z"/>
						</g>
						<g id="Clipped_00000085931776188671645810000008578159823110829217_">
							<g id="SVGID_00000044862257401400702850000015804517246290930352_">
							</g>
							<defs>
								
									<filter id="Adobe_OpacityMaskFilter_00000116932219383395779500000012915682973805348497_" filterUnits="userSpaceOnUse" x="9" y="60.3" width="47.3" height="4.8">
									<feColorMatrix  type="matrix" values="1 0 0 0 0  0 1 0 0 0  0 0 1 0 0  0 0 0 1 0"/>
								</filter>
							</defs>
							
								<mask maskUnits="userSpaceOnUse" x="9" y="60.3" width="47.3" height="4.8" id="mask-13_00000129923014256045255210000017187055169857514119_">
								<g style="filter:url(#Adobe_OpacityMaskFilter_00000116932219383395779500000012915682973805348497_);">
									<path id="path-12_00000049220577133671249350000009500521951310146482_" class="st1" d="M38.6,0H13.4C11,0,9,2,9,4.4v56.2
										c0,2.4,2,4.4,4.4,4.4h38.5c2.4,0,4.4-2,4.4-4.4V17.8L38.6,0z"/>
								</g>
							</mask>
							<path id="Path_00000002370626183282548580000008252227093224772237_" class="st13" d="M51.9,64.7H13.4c-2.4,0-4.4-2-4.4-4.4
								v0.4c0,2.4,2,4.4,4.4,4.4h38.5c2.4,0,4.4-2,4.4-4.4v-0.4C56.3,62.7,54.3,64.7,51.9,64.7z"/>
						</g>
						<g id="Clipped_00000131336620658728035060000008051470445563073439_">
							<g id="SVGID_00000098931577645691677970000013315282940362087558_">
							</g>
							<defs>
								
									<filter id="Adobe_OpacityMaskFilter_00000126313180688189211510000013644312462983362444_" filterUnits="userSpaceOnUse" x="38.6" y="13.3" width="17.7" height="4.8">
									<feColorMatrix  type="matrix" values="1 0 0 0 0  0 1 0 0 0  0 0 1 0 0  0 0 0 1 0"/>
								</filter>
							</defs>
							
								<mask maskUnits="userSpaceOnUse" x="38.6" y="13.3" width="17.7" height="4.8" id="mask-15_00000132048852997703320670000010134624619567815081_">
								<g style="filter:url(#Adobe_OpacityMaskFilter_00000126313180688189211510000013644312462983362444_);">
									<path id="path-14_00000023254037332694514330000012268941734991097015_" class="st1" d="M38.6,0H13.4C11,0,9,2,9,4.4v56.2
										c0,2.4,2,4.4,4.4,4.4h38.5c2.4,0,4.4-2,4.4-4.4V17.8L38.6,0z"/>
								</g>
							</mask>
							<path id="Path_00000111166050464282074350000000437181460786775209_" class="st15" d="M43,17.8c-2.5,0-4.4-2-4.4-4.4v0.4
								c0,2.5,2,4.4,4.4,4.4h13.3v-0.4H43z"/>
						</g>
					</g>
					
						<radialGradient id="Path_00000175284414743802260390000015749818830274300555_" cx="-907.0481" cy="562.3243" r="1.6125" gradientTransform="matrix(47.3333 0 0 -47.3334 42944.1094 26618.4648)" gradientUnits="userSpaceOnUse">
						<stop  offset="0" style="stop-color:#FFFFFF;stop-opacity:0.1"/>
						<stop  offset="1" style="stop-color:#FFFFFF;stop-opacity:0"/>
					</radialGradient>
					
						<path id="Path_00000155863747723242760940000008280169264591700132_" style="fill:url(#Path_00000175284414743802260390000015749818830274300555_);" d="
						M38.6,0H13.4C11,0,9,2,9,4.4v56.2c0,2.4,2,4.4,4.4,4.4h38.5c2.4,0,4.4-2,4.4-4.4V17.8L38.6,0z"/>
				</g>
			</g>
		</g>
	</g>
</g>
</svg>
